<?xml version="1.0" encoding="UTF-8"?>
<svg width="18px" height="24px" viewBox="0 0 18 24" version="1.1" xmlns="http://www.w3.org/2000/svg" xmlns:xlink="http://www.w3.org/1999/xlink">
    <!-- Generator: Sketch 48.2 (47327) - http://www.bohemiancoding.com/sketch -->
    <title>up</title>
    <desc>Created with Sketch.</desc>
    <defs></defs>
    <g id="Page-1" stroke="none" stroke-width="1" fill="none" fill-rule="evenodd">
        <g id="1-copy" transform="translate(-541.000000, -838.000000)" fill="#B4B4B4">
            <g id="footer" transform="translate(2.000000, 812.000000)">
                <path d="M556.636719,36.7929688 C556.882812,37.0976562 557,37.4726562 557,37.859375 C557,38.09375 556.953125,38.328125 556.859375,38.5507812 C556.601562,39.1484375 556.0625,39.5 555.464844,39.5 L551,39.5 L550.988281,47 C550.988281,48.6523438 549.652344,50 548,50 C546.347656,50 545.011719,48.6523438 545.011719,47 L545.023438,39.5 L540.558594,39.5 C539.960938,39.5 539.398438,39.1484375 539.152344,38.5507812 C539.046875,38.328125 539,38.09375 539,37.859375 C539,37.4726562 539.128906,37.0976562 539.363281,36.7929688 L546.816406,26.5976562 C547.109375,26.2226562 547.542969,26 548,26 C548.46875,26 548.902344,26.2226562 549.183594,26.5976562 L556.636719,36.7929688 Z" id="up"></path>
            </g>
        </g>
    </g>
</svg>